<?xml version="1.0" standalone="no"?>
<!DOCTYPE svg PUBLIC "-//W3C//DTD SVG 20010904//EN"
 "http://www.w3.org/TR/2001/REC-SVG-20010904/DTD/svg10.dtd">
<svg version="1.0" xmlns="http://www.w3.org/2000/svg"
 width="700.000000pt" height="700.000000pt" viewBox="0 0 700.000000 700.000000"
 preserveAspectRatio="xMidYMid meet">
<metadata>
Created by potrace 1.14, written by Peter Selinger 2001-2017
</metadata>
<g transform="translate(0.000000,700.000000) scale(0.100000,-0.100000)"
fill="#000000" stroke="none">
<path d="M1610 6985 c-225 -28 -422 -89 -620 -191 -278 -143 -524 -365 -692
-624 -158 -243 -257 -526 -287 -820 -15 -140 -15 -3558 -1 -3701 32 -309 150
-627 328 -879 87 -123 309 -346 432 -432 181 -128 408 -231 625 -284 223 -54
205 -54 2101 -54 1146 0 1788 4 1855 10 215 22 446 88 633 182 202 101 347
209 511 380 275 287 442 643 490 1048 22 187 22 3573 0 3760 -27 233 -86 425
-191 630 -143 278 -365 524 -624 692 -241 157 -530 258 -819 288 -164 16
-3605 12 -3741 -5z m3820 -319 c214 -41 426 -128 605 -249 117 -79 303 -265
382 -382 152 -226 239 -469 263 -737 13 -154 13 -3443 0 -3598 -33 -365 -180
-681 -440 -940 -178 -178 -373 -298 -605 -373 -239 -76 -95 -71 -2045 -75
-1147 -2 -1788 0 -1872 7 -379 31 -692 175 -958 441 -178 177 -291 360 -370
599 -80 241 -75 102 -75 2141 0 2041 -5 1900 76 2143 96 291 261 528 502 720
215 172 512 291 792 316 49 5 891 8 1870 7 1678 -1 1785 -3 1875 -20z"/>
<path d="M2660 5844 c-14 -2 -59 -9 -100 -15 -161 -24 -314 -89 -424 -181 -54
-46 -117 -139 -146 -216 -52 -136 -53 -149 -59 -782 l-7 -595 -27 -79 c-32
-91 -70 -150 -129 -200 -66 -57 -139 -88 -218 -94 l-70 -5 0 -177 0 -177 64
-5 c165 -14 302 -134 362 -318 16 -49 18 -118 24 -650 6 -487 10 -607 23 -660
78 -325 280 -485 672 -530 50 -5 123 -10 163 -10 l72 0 0 175 c0 133 -3 175
-12 175 -43 0 -200 23 -239 34 -151 45 -221 129 -249 298 -6 36 -10 257 -10
519 0 257 -5 503 -11 564 -13 133 -48 256 -97 349 -35 66 -138 184 -192 220
l-24 16 24 16 c54 36 157 154 192 220 49 93 84 216 97 349 6 61 11 307 11 564
0 262 4 483 10 519 35 211 132 293 385 322 50 5 96 10 103 10 9 0 12 42 12
175 l0 175 -87 -1 c-49 -1 -99 -3 -113 -5z"/>
<path d="M4140 5677 l0 -175 78 -7 c202 -18 320 -72 375 -173 59 -108 59 -118
67 -737 8 -615 10 -642 66 -780 44 -107 146 -236 226 -283 33 -19 35 -28 9
-37 -28 -9 -136 -118 -176 -177 -44 -67 -78 -152 -100 -248 -15 -64 -19 -158
-25 -645 -8 -619 -8 -629 -67 -737 -55 -101 -173 -155 -375 -173 l-78 -7 0
-174 0 -174 78 0 c187 0 394 44 524 112 162 84 265 226 310 428 20 89 21 134
27 690 6 540 8 600 25 645 58 161 199 278 355 293 l66 7 0 175 0 175 -66 7
c-121 12 -235 81 -301 182 -73 114 -71 93 -78 756 -6 557 -8 601 -28 690 -31
137 -80 230 -166 315 -138 137 -337 208 -623 222 l-123 6 0 -176z"/>
<path d="M3376 4550 c-63 -25 -138 -99 -168 -164 -33 -75 -33 -211 2 -281 59
-120 160 -181 300 -179 136 2 225 56 282 172 30 60 33 75 33 152 0 101 -20
154 -86 225 -65 71 -107 88 -219 92 -77 3 -104 -1 -144 -17z"/>
<path d="M3449 2629 c-69 -8 -150 -50 -190 -100 -135 -170 -88 -419 95 -509
57 -28 74 -32 151 -32 77 0 94 4 150 31 70 35 112 79 148 158 31 68 31 198 0
266 -66 143 -184 205 -354 186z"/>
</g>
</svg>
